<svg xmlns="http://www.w3.org/2000/svg" xmlns:xlink="http://www.w3.org/1999/xlink" viewBox="0,0,256,256" width="24px" height="24px" fill-rule="nonzero"><g fill="#ffffff" fill-rule="nonzero" stroke="none" stroke-width="1" stroke-linecap="butt" stroke-linejoin="miter" stroke-miterlimit="10" stroke-dasharray="" stroke-dashoffset="0" font-family="none" font-weight="none" font-size="none" text-anchor="none" style="mix-blend-mode: normal"><g transform="scale(10.66667,10.66667)"><path d="M17.44727,3.99414c-0.26962,0.04712 -0.52119,0.20408 -0.67969,0.45508c-0.269,0.426 -0.17916,0.98678 0.21484,1.30078c1.837,1.466 3.01758,3.718 3.01758,6.25c0,2.532 -1.18058,4.78305 -3.01758,6.24805c-0.394,0.314 -0.48384,0.87673 -0.21484,1.30273c0.317,0.502 1.00475,0.62491 1.46875,0.25391c2.292,-1.83 3.76367,-4.64369 3.76367,-7.80469c0,-3.161 -1.47167,-5.97369 -3.76367,-7.80469c-0.232,-0.1855 -0.51944,-0.2483 -0.78906,-0.20117zM6.55273,3.99609c-0.26938,-0.04725 -0.55706,0.01422 -0.78906,0.19922c-2.292,1.831 -3.76367,4.64369 -3.76367,7.80469c0,3.161 1.47167,5.97369 3.76367,7.80469c0.464,0.371 1.15175,0.24809 1.46875,-0.25391c0.269,-0.426 0.17916,-0.98678 -0.21484,-1.30078c-1.837,-1.466 -3.01758,-3.718 -3.01758,-6.25c0,-2.532 1.18058,-4.78305 3.01758,-6.24805c0.394,-0.314 0.48289,-0.87673 0.21289,-1.30273c-0.1585,-0.251 -0.40836,-0.40587 -0.67773,-0.45312zM8.68164,7.39844c-0.27812,-0.04387 -0.57047,0.03073 -0.79297,0.24023c-1.161,1.093 -1.88867,2.64033 -1.88867,4.36133c0,1.721 0.72767,3.26833 1.88867,4.36133c0.445,0.418 1.17205,0.29334 1.49805,-0.22266l0.00391,-0.00586c0.261,-0.413 0.16641,-0.9383 -0.18359,-1.2793c-0.744,-0.724 -1.20703,-1.73252 -1.20703,-2.85352c0,-1.121 0.46303,-2.12952 1.20703,-2.85352c0.35,-0.341 0.44459,-0.8653 0.18359,-1.2793l-0.00391,-0.00586c-0.163,-0.258 -0.42695,-0.41902 -0.70508,-0.46289zM15.31836,7.40039c-0.27812,0.04375 -0.54208,0.20294 -0.70508,0.46094l-0.00391,0.00586c-0.261,0.413 -0.16641,0.9383 0.18359,1.2793c0.744,0.724 1.20703,1.73252 1.20703,2.85352c0,1.121 -0.46398,2.12952 -1.20898,2.85352c-0.35,0.341 -0.44264,0.8653 -0.18164,1.2793l0.00391,0.00586c0.326,0.516 1.05405,0.64166 1.49805,0.22266c1.162,-1.093 1.88867,-2.64033 1.88867,-4.36133c0,-1.721 -0.72767,-3.26833 -1.88867,-4.36133c-0.2225,-0.209 -0.51484,-0.28203 -0.79297,-0.23828zM12,10c-1.10457,0 -2,0.89543 -2,2c0,1.10457 0.89543,2 2,2c1.10457,0 2,-0.89543 2,-2c0,-1.10457 -0.89543,-2 -2,-2z"></path></g></g></svg>